<svg width="180" height="180" viewBox="0 0 64 64" fill="none" xmlns="http://www.w3.org/2000/svg">
  <rect x="2" y="2" width="60" height="60" rx="14" fill="#101D22" />
  <path
    d="M6 42c3.8-9.4 11.4-14.5 20.2-14.5 2.8 0 5.6.6 8.1 1.8"
    stroke="#13B6EC"
    stroke-width="8"
    stroke-linecap="round"
  />
  <path
    d="M33.9 7.5c-9.3 0-16.8 7.5-16.8 16.8 0 7.8 5.4 14.6 13 16.4l3.8 9.3 3.8-9.3c7.6-1.8 13-8.6 13-16.4 0-9.3-7.5-16.8-16.8-16.8zm0 8.8a8 8 0 110 16 8 8 0 010-16z"
    fill="#13B6EC"
  />
</svg>
