<svg width="1400" height="760" viewBox="0 0 1400 760" fill="none" xmlns="http://www.w3.org/2000/svg">
  <defs>
    <linearGradient id="bg" x1="64" y1="48" x2="1338" y2="716" gradientUnits="userSpaceOnUse">
      <stop stop-color="#E0F2FE"/>
      <stop offset="0.42" stop-color="#DDEBFF"/>
      <stop offset="1" stop-color="#D6FAF4"/>
    </linearGradient>
    <linearGradient id="panel" x1="0" y1="0" x2="1" y2="1">
      <stop stop-color="#FFFFFF" stop-opacity="0.92"/>
      <stop offset="1" stop-color="#F8FAFC" stop-opacity="0.82"/>
    </linearGradient>
    <linearGradient id="accent" x1="312" y1="184" x2="1016" y2="612" gradientUnits="userSpaceOnUse">
      <stop stop-color="#13B6EC"/>
      <stop offset="0.56" stop-color="#378BEA"/>
      <stop offset="1" stop-color="#0FB6A3"/>
    </linearGradient>
    <filter id="softShadow" x="0" y="0" width="1400" height="760" filterUnits="userSpaceOnUse" color-interpolation-filters="sRGB">
      <feDropShadow dx="0" dy="18" stdDeviation="30" flood-color="#0F172A" flood-opacity="0.12"/>
    </filter>
  </defs>

  <rect x="20" y="20" width="1360" height="720" rx="36" fill="url(#bg)"/>
  <circle cx="1210" cy="120" r="110" fill="#FFFFFF" fill-opacity="0.45"/>
  <circle cx="128" cy="648" r="126" fill="#8DD9FF" fill-opacity="0.42"/>
  <circle cx="1090" cy="628" r="150" fill="#6EE7D8" fill-opacity="0.18"/>

  <rect x="64" y="56" width="1272" height="92" rx="24" fill="#FFFFFF" fill-opacity="0.6"/>
  <rect x="64.5" y="56.5" width="1271" height="91" rx="23.5" stroke="#D7E6EE"/>
  <rect x="94" y="82" width="34" height="34" rx="10" fill="#13B6EC" fill-opacity="0.18"/>
  <rect x="103" y="91" width="16" height="16" rx="4" fill="#13B6EC"/>
  <text x="142" y="107" fill="#0F172A" font-size="24" font-family="Inter, Arial, sans-serif" font-weight="700">Pave</text>
  <rect x="1164" y="72" width="136" height="46" rx="23" fill="#13B6EC"/>
  <text x="1194" y="101" fill="#FFFFFF" font-size="20" font-family="Inter, Arial, sans-serif" font-weight="700">Star Repo</text>

  <g filter="url(#softShadow)">
    <rect x="92" y="184" width="676" height="476" rx="30" fill="url(#panel)"/>
    <rect x="92.5" y="184.5" width="675" height="475" rx="29.5" stroke="#DCE9F0"/>

    <rect x="132" y="226" width="220" height="28" rx="14" fill="#13B6EC" fill-opacity="0.15"/>
    <text x="152" y="245" fill="#0C7BB0" font-size="14" font-family="Inter, Arial, sans-serif" font-weight="800" letter-spacing="1.4">TRAVEL INTENT, MADE OPERABLE</text>

    <text x="132" y="334" fill="#0F172A" font-size="76" font-family="Inter, Arial, sans-serif" font-weight="800">Pave</text>
    <text x="132" y="398" fill="#334155" font-size="31" font-family="Inter, Arial, sans-serif" font-weight="500">Turns saved travel chaos into editable itineraries,</text>
    <text x="132" y="442" fill="#334155" font-size="31" font-family="Inter, Arial, sans-serif" font-weight="500">then gives those itineraries a social life.</text>

    <rect x="132" y="490" width="258" height="52" rx="16" fill="#13B6EC"/>
    <text x="164" y="523" fill="#FFFFFF" font-size="20" font-family="Inter, Arial, sans-serif" font-weight="700">Review AI drafts</text>

    <rect x="408" y="490" width="214" height="52" rx="16" fill="#E2E8F0"/>
    <text x="448" y="523" fill="#0F172A" font-size="20" font-family="Inter, Arial, sans-serif" font-weight="700">Explore feed</text>

    <circle cx="144" cy="580" r="4.5" fill="#13B6EC"/>
    <text x="160" y="586" fill="#475569" font-size="20" font-family="Inter, Arial, sans-serif" font-weight="600">Parse links, captions, and destination hints</text>
    <circle cx="144" cy="616" r="4.5" fill="#13B6EC"/>
    <text x="160" y="622" fill="#475569" font-size="20" font-family="Inter, Arial, sans-serif" font-weight="600">Review before save, then publish, remix, export</text>
  </g>

  <g filter="url(#softShadow)">
    <rect x="820" y="184" width="488" height="476" rx="32" fill="url(#accent)"/>
    <rect x="854" y="226" width="420" height="92" rx="22" fill="#FFFFFF" fill-opacity="0.9"/>
    <text x="884" y="262" fill="#0F172A" font-size="18" font-family="Inter, Arial, sans-serif" font-weight="800">Advisory create flow</text>
    <text x="884" y="292" fill="#475569" font-size="16" font-family="Inter, Arial, sans-serif">Parse → draft → review → accept → persist</text>

    <rect x="854" y="342" width="194" height="136" rx="22" fill="#FFFFFF" fill-opacity="0.9"/>
    <text x="878" y="374" fill="#0C7BB0" font-size="16" font-family="Inter, Arial, sans-serif" font-weight="800">Live systems</text>
    <text x="878" y="404" fill="#334155" font-size="14" font-family="Inter, Arial, sans-serif">OpenAI draft layer</text>
    <text x="878" y="426" fill="#334155" font-size="14" font-family="Inter, Arial, sans-serif">Deterministic fallback</text>
    <text x="878" y="448" fill="#334155" font-size="14" font-family="Inter, Arial, sans-serif">Canonical place resolution</text>

    <rect x="1080" y="342" width="194" height="136" rx="22" fill="#FFFFFF" fill-opacity="0.9"/>
    <text x="1104" y="374" fill="#0FB6A3" font-size="16" font-family="Inter, Arial, sans-serif" font-weight="800">Social layer</text>
    <text x="1104" y="404" fill="#334155" font-size="14" font-family="Inter, Arial, sans-serif">Feed + profiles</text>
    <text x="1104" y="426" fill="#334155" font-size="14" font-family="Inter, Arial, sans-serif">Comments + saves</text>
    <text x="1104" y="448" fill="#334155" font-size="14" font-family="Inter, Arial, sans-serif">Remix lineage</text>

    <rect x="854" y="500" width="420" height="120" rx="22" fill="#0F172A" fill-opacity="0.22"/>
    <rect x="884" y="530" width="112" height="56" rx="20" fill="#FFFFFF" fill-opacity="0.96"/>
    <rect x="1010" y="530" width="112" height="56" rx="20" fill="#FFFFFF" fill-opacity="0.96"/>
    <rect x="1136" y="514" width="108" height="92" rx="28" fill="#FFFFFF" fill-opacity="0.9"/>
    <rect x="1158" y="532" width="64" height="8" rx="4" fill="#CBD5E1"/>
    <rect x="1158" y="552" width="48" height="32" rx="10" fill="#13B6EC" fill-opacity="0.18"/>
    <text x="909" y="566" fill="#0F172A" font-size="14" font-family="Inter, Arial, sans-serif" font-weight="700">Web app</text>
    <text x="1026" y="566" fill="#0F172A" font-size="14" font-family="Inter, Arial, sans-serif" font-weight="700">API layer</text>
    <text x="1156" y="596" fill="#0F172A" font-size="12" font-family="Inter, Arial, sans-serif" font-weight="700">Mobile beta</text>
  </g>
</svg>
